<svg xmlns="http://www.w3.org/2000/svg" width="1200" height="260" viewBox="0 0 1200 260" role="img" aria-labelledby="title desc">
  <title id="title">peach · YongJun Kim</title>
  <desc id="desc">Backend and Data Analysis. A peach-toned profile banner.</desc>
  <defs>
    <linearGradient id="bg" x1="0" y1="0" x2="1" y2="1">
      <stop offset="0" stop-color="#fff5ef"/>
      <stop offset="1" stop-color="#ffe2d3"/>
    </linearGradient>
    <linearGradient id="fruit" x1="0" y1="0" x2="0.8" y2="1">
      <stop offset="0" stop-color="#ffb393"/>
      <stop offset="1" stop-color="#ed846f"/>
    </linearGradient>
  </defs>
  <rect width="1200" height="260" rx="22" fill="url(#bg)"/>
  <circle cx="1110" cy="10" r="200" fill="#fffaf6" opacity=".5"/>
  <circle cx="1170" cy="240" r="180" fill="#ffc8ad" opacity=".28"/>
  <rect x="56" y="48" width="34" height="4" rx="2" fill="#bb6855"/>
  <text x="56" y="124" font-family="Segoe UI,Arial,sans-serif" font-size="63" font-weight="700" fill="#58372f" letter-spacing="-2">peach<tspan fill="#c87660">.</tspan></text>
  <text x="58" y="166" font-family="Segoe UI,Arial,sans-serif" font-size="22" fill="#6f4b40">YongJun Kim</text>
  <text x="58" y="207" font-family="Segoe UI,Arial,sans-serif" font-size="17" font-weight="600" letter-spacing="2.1" fill="#8c5b4c">BACKEND / DATA ANALYSIS</text>
  <g transform="translate(954 59)">
    <path d="M70 26 C58 6 84 -4 110 2 C105 22 88 32 70 26Z" fill="#7b9973"/>
    <path d="M72 34 C43 13 6 31 5 68 C3 110 36 132 73 145 C110 130 140 104 137 67 C134 29 102 14 72 34Z" fill="url(#fruit)"/>
    <path d="M72 36 C59 56 59 90 72 123" fill="none" stroke="#cd6f5d" stroke-width="3" stroke-linecap="round" opacity=".6"/>
    <path d="M30 47 C23 54 20 63 20 72" fill="none" stroke="#ffdbbf" stroke-width="8" stroke-linecap="round" opacity=".75"/>
  </g>
</svg>
